<?xml version="1.0" encoding="UTF-8" standalone="no"?>
<!-- Created with Inkscape (http://www.inkscape.org/) -->

<svg
   xmlns:dc="http://purl.org/dc/elements/1.1/"
   xmlns:cc="http://creativecommons.org/ns#"
   xmlns:rdf="http://www.w3.org/1999/02/22-rdf-syntax-ns#"
   xmlns:svg="http://www.w3.org/2000/svg"
   xmlns="http://www.w3.org/2000/svg"
   xmlns:xlink="http://www.w3.org/1999/xlink"
   xmlns:sodipodi="http://sodipodi.sourceforge.net/DTD/sodipodi-0.dtd"
   xmlns:inkscape="http://www.inkscape.org/namespaces/inkscape"
   width="512"
   height="512"
   id="svg3129"
   version="1.1"
   inkscape:version="0.48.4 r9939"
   sodipodi:docname="icon.svg"
   inkscape:export-filename="/home/daniel/Development/Aegir/data/icon.png"
   inkscape:export-xdpi="90"
   inkscape:export-ydpi="90">
  <defs
     id="defs3131">
    <radialGradient
       inkscape:collect="always"
       xlink:href="#linearGradient6422"
       id="radialGradient6428"
       cx="740"
       cy="38.049831"
       fx="740"
       fy="38.049831"
       r="100"
       gradientTransform="matrix(3.3202314,0,0,2.0108953,-2356.9712,28.485765)"
       gradientUnits="userSpaceOnUse" />
    <linearGradient
       inkscape:collect="always"
       id="linearGradient6422">
      <stop
         style="stop-color:#0e3f70;stop-opacity:1;"
         offset="0"
         id="stop6424" />
      <stop
         style="stop-color:#06203a;stop-opacity:1"
         offset="1"
         id="stop6426" />
    </linearGradient>
    <radialGradient
       inkscape:collect="always"
       xlink:href="#linearGradient6450"
       id="radialGradient6460"
       gradientUnits="userSpaceOnUse"
       gradientTransform="matrix(3.3202314,0,0,2.0108953,-2156.9712,28.485765)"
       cx="740"
       cy="38.049831"
       fx="740"
       fy="38.049831"
       r="100" />
    <linearGradient
       inkscape:collect="always"
       id="linearGradient6450">
      <stop
         style="stop-color:#eefafb;stop-opacity:1"
         offset="0"
         id="stop6452" />
      <stop
         style="stop-color:#a8d5d8;stop-opacity:1"
         offset="1"
         id="stop6454" />
    </linearGradient>
    <radialGradient
       r="100"
       fy="38.049831"
       fx="740"
       cy="38.049831"
       cx="740"
       gradientTransform="matrix(8.4997924,0,0,3.9599169,-6033.8463,596.45727)"
       gradientUnits="userSpaceOnUse"
       id="radialGradient3127"
       xlink:href="#linearGradient6450"
       inkscape:collect="always" />
  </defs>
  <sodipodi:namedview
     id="base"
     pagecolor="#ffffff"
     bordercolor="#666666"
     borderopacity="1.0"
     inkscape:pageopacity="0.0"
     inkscape:pageshadow="2"
     inkscape:zoom="0.98994949"
     inkscape:cx="377.18163"
     inkscape:cy="211.03989"
     inkscape:document-units="px"
     inkscape:current-layer="layer1"
     showgrid="false"
     inkscape:window-width="1920"
     inkscape:window-height="1056"
     inkscape:window-x="0"
     inkscape:window-y="24"
     inkscape:window-maximized="1" />
  <metadata
     id="metadata3134">
    <rdf:RDF>
      <cc:Work
         rdf:about="">
        <dc:format>image/svg+xml</dc:format>
        <dc:type
           rdf:resource="http://purl.org/dc/dcmitype/StillImage" />
        <dc:title></dc:title>
      </cc:Work>
    </rdf:RDF>
  </metadata>
  <g
     inkscape:label="Layer 1"
     inkscape:groupmode="layer"
     id="layer1"
     transform="translate(0,-540.36218)">
    <rect
       y="540.36218"
       x="0"
       height="512"
       width="512"
       id="rect6458"
       style="fill:url(#radialGradient3127);fill-opacity:1;fill-rule:nonzero;stroke:none;stroke-width:5;marker:none;visibility:visible;display:inline;overflow:visible;enable-background:accumulate" />
    <g
       transform="matrix(1.9343668,0,0,1.9343668,-1175.4314,645.13609)"
       id="g6150"
       style="fill:#0a1f36;fill-opacity:1;display:inline">
      <g
         id="g6152"
         transform="matrix(1.0726552,0,0,1.1700569,198.12171,-90.138095)"
         style="fill:#0a1f36;fill-opacity:1">
        <g
           transform="matrix(1.3824225,0,0,1.3824225,-193.58855,-49.517314)"
           style="fill:#0a1f36;fill-opacity:1"
           id="g6154">
          <path
             inkscape:connector-curvature="0"
             style="fill:#0a1f36;fill-opacity:1;fill-rule:nonzero;stroke:none;stroke-width:5;marker:none;visibility:visible;display:inline;overflow:visible;enable-background:accumulate"
             d="m 529.1538,129.33275 c 0,0 -47.01047,0 -47.01047,0 0,0 12.36511,-30.310618 12.36511,-30.310618 3.74986,0 -9.53598,19.427938 10.625,23.186068 21.84001,4.07111 24.02036,4.78138 24.02036,7.12455 z"
             id="path6156"
             sodipodi:nodetypes="ccsss" />
          <path
             inkscape:connector-curvature="0"
             style="fill:#0a1f36;fill-opacity:1;fill-rule:nonzero;stroke:none;stroke-width:5;marker:none;visibility:visible;display:inline;overflow:visible;enable-background:accumulate"
             d="m 494.4833,108.16112 c 0,0 -0.76978,7.94322 15.37954,8.62927 11.34287,0.47947 14.57914,0.71038 14.57914,0.71038 l 2.72193,6.44424 c 0,0 -0.2016,-0.3884 -18.92621,-2.69637 -16.35269,-2.01561 -13.7544,-13.08752 -13.7544,-13.08752 z"
             id="path6158"
             sodipodi:nodetypes="csccsc" />
          <path
             inkscape:connector-curvature="0"
             style="fill:#0a1f36;fill-opacity:1;fill-rule:nonzero;stroke:none;stroke-width:5;marker:none;visibility:visible;display:inline;overflow:visible;enable-background:accumulate"
             d="m 495.32782,105.75061 c 1.67806,7.63874 16.57057,8.12275 16.04477,-0.42916 -0.35631,-5.795272 -7.07406,-5.19219 -5.5457,-2.06558 0,0 -2.56409,-1.1124 -2.56409,-1.1124 1.09343,-3.14548 10.97151,-5.705222 15.61906,2.89077 4.64755,8.59599 4.37112,9.65873 4.37112,9.65873 0,0 -3.91482,0.0126 -16.79835,-0.11501 -12.88296,-0.12761 -11.12681,-8.82735 -11.12681,-8.82735 z"
             id="path6160"
             sodipodi:nodetypes="cssszczs" />
          <path
             sodipodi:type="arc"
             style="fill:#0a1f36;fill-opacity:1;fill-rule:nonzero;stroke:none;stroke-width:5;marker:none;visibility:visible;display:inline;overflow:visible;enable-background:accumulate"
             id="path6162"
             sodipodi:cx="505.56061"
             sodipodi:cy="103.49209"
             sodipodi:rx="2.8776281"
             sodipodi:ry="2.8776281"
             d="m 508.43824,103.49209 c 0,1.58927 -1.28836,2.87763 -2.87763,2.87763 -1.58927,0 -2.87763,-1.28836 -2.87763,-2.87763 0,-1.58927 1.28836,-2.87763 2.87763,-2.87763 1.58927,0 2.87763,1.28836 2.87763,2.87763 z"
             transform="matrix(0.8999532,0,0,0.8999532,50.390569,10.161106)" />
        </g>
      </g>
      <path
         inkscape:connector-curvature="0"
         sodipodi:nodetypes="cccccccsccccccscscccscssccscccccccccccccscccccccccccscccsccc"
         id="path6164"
         d="m 714.34986,73.533838 c -10.72803,4.443703 -10.72107,20.417703 -10.72107,20.417703 l 4.65552,0.0066 0.45874,-4.371091 7.37226,-0.0096 0,4.378886 15.57033,0 c 0,0 -2.12935,-1.906285 -2.12935,-4.196108 0,0 -8.72063,0 -8.72063,0 l 0,-4.34663 8.69118,0 0,-3.515624 -8.69118,0 0,-4.525195 c 0,0 8.69118,0 8.69118,0 0,-2.103241 2.182,-3.838987 2.182,-3.838987 0,0 -17.35898,0 -17.35898,0 z m 25.60797,-0.200875 c -4.57115,-1e-5 -7.34323,3.490624 -7.34323,7.878859 l 0,5.245132 c 0,4.2511 2.9103,7.767262 7.29855,7.767262 2.23985,0 4.29683,-1.008314 5.71383,-2.745323 0,0.639936 0.0447,1.324176 0.0447,1.964132 -9e-5,3.154046 -1.5512,5.401369 -4.88809,5.401369 -2.01123,1e-5 -3.05013,-0.881898 -4.33002,-2.298924 l -3.34792,2.834601 c 1.96557,2.239819 4.6611,3.526519 7.67794,3.526519 3.29122,-10e-6 6.23119,-1.56399 7.96814,-4.352349 1.05137,-1.691295 1.22763,-2.788541 1.22763,-4.754105 l 0,-20.17702 -4.35236,0 0,2.410531 c -1.55418,-1.73702 -3.33797,-2.700684 -5.66915,-2.700684 z m 31.74858,0 c -2.28551,-1e-5 -4.20649,1.009379 -5.66916,2.700684 l 0,-2.410531 -4.39703,0 0,20.333266 4.39703,0 0,-11.740175 c 0,-2.559795 1.83607,-4.5309 4.44163,-4.5309 1.23413,0 1.91926,0.362288 2.8792,1.093664 l 3.01313,-3.794348 c -1.32556,-1.097054 -2.97352,-1.65166 -4.6648,-1.65166 z m -18.10631,0.290153 0,20.333266 4.37469,0 0,-20.333266 -4.37469,0 z m -37.48906,3.125119 c 0,0 0,9.390238 0,9.390238 l -6.84894,0.0045 c 0,0 1.34515,-7.114953 6.84894,-9.394694 z m 25.23059,0.937072 c 2.46837,0 4.28535,2.018952 4.28535,4.441622 l 0,2.990838 c 0,2.696929 -1.45135,4.754104 -4.28535,4.754104 -2.33127,1.1e-5 -4.39703,-1.90843 -4.39703,-4.285386 l 0,-3.459556 c 0,-2.468385 1.92867,-4.441622 4.39703,-4.441622 z"
         style="font-size:64px;font-style:normal;font-variant:normal;font-weight:bold;font-stretch:normal;text-align:end;line-height:110.00000238%;writing-mode:lr-tb;text-anchor:end;fill:#0a1f36;fill-opacity:1;fill-rule:nonzero;stroke:none;stroke-width:5;marker:none;visibility:visible;display:inline;overflow:visible;enable-background:accumulate;font-family:AF Battersea Bold;-inkscape-font-specification:Helvetica Neue Bold" />
    </g>
  </g>
</svg>
