<?xml version="1.0" encoding="UTF-8" standalone="no"?>
<!-- Created with Inkscape (http://www.inkscape.org/) -->

<svg
   xmlns:dc="http://purl.org/dc/elements/1.1/"
   xmlns:cc="http://creativecommons.org/ns#"
   xmlns:rdf="http://www.w3.org/1999/02/22-rdf-syntax-ns#"
   xmlns:svg="http://www.w3.org/2000/svg"
   xmlns="http://www.w3.org/2000/svg"
   xmlns:xlink="http://www.w3.org/1999/xlink"
   xmlns:sodipodi="http://sodipodi.sourceforge.net/DTD/sodipodi-0.dtd"
   xmlns:inkscape="http://www.inkscape.org/namespaces/inkscape"
   width="1190"
   height="360"
   id="svg3129"
   version="1.1"
   inkscape:version="0.48.4 r9939"
   sodipodi:docname="logo.svg"
   inkscape:export-filename="/home/daniel/Development/Aegir/data/logo.png"
   inkscape:export-xdpi="90"
   inkscape:export-ydpi="90">
  <defs
     id="defs3131">
    <radialGradient
       inkscape:collect="always"
       xlink:href="#linearGradient6422"
       id="radialGradient6428"
       cx="740"
       cy="38.049831"
       fx="740"
       fy="38.049831"
       r="100"
       gradientTransform="matrix(3.3202314,0,0,2.0108953,-2356.9712,28.485765)"
       gradientUnits="userSpaceOnUse" />
    <linearGradient
       inkscape:collect="always"
       id="linearGradient6422">
      <stop
         style="stop-color:#0e3f70;stop-opacity:1;"
         offset="0"
         id="stop6424" />
      <stop
         style="stop-color:#06203a;stop-opacity:1"
         offset="1"
         id="stop6426" />
    </linearGradient>
    <radialGradient
       inkscape:collect="always"
       xlink:href="#linearGradient6450"
       id="radialGradient6460"
       gradientUnits="userSpaceOnUse"
       gradientTransform="matrix(3.3202314,0,0,2.0108953,-2156.9712,28.485765)"
       cx="740"
       cy="38.049831"
       fx="740"
       fy="38.049831"
       r="100" />
    <linearGradient
       inkscape:collect="always"
       id="linearGradient6450">
      <stop
         style="stop-color:#eefafb;stop-opacity:1"
         offset="0"
         id="stop6452" />
      <stop
         style="stop-color:#a8d5d8;stop-opacity:1"
         offset="1"
         id="stop6454" />
    </linearGradient>
  </defs>
  <sodipodi:namedview
     id="base"
     pagecolor="#ffffff"
     bordercolor="#666666"
     borderopacity="1.0"
     inkscape:pageopacity="0.0"
     inkscape:pageshadow="2"
     inkscape:zoom="0.7"
     inkscape:cx="677.8125"
     inkscape:cy="73.201023"
     inkscape:document-units="px"
     inkscape:current-layer="layer1"
     showgrid="false"
     inkscape:window-width="1920"
     inkscape:window-height="1056"
     inkscape:window-x="0"
     inkscape:window-y="24"
     inkscape:window-maximized="1"
     showguides="true"
     inkscape:guide-bbox="true">
    <sodipodi:guide
       orientation="0,1"
       position="788.57143,334.28572"
       id="guide3803" />
    <sodipodi:guide
       orientation="0,1"
       position="717.14286,27.142857"
       id="guide3805" />
  </sodipodi:namedview>
  <metadata
     id="metadata3134">
    <rdf:RDF>
      <cc:Work
         rdf:about="">
        <dc:format>image/svg+xml</dc:format>
        <dc:type
           rdf:resource="http://purl.org/dc/dcmitype/StillImage" />
        <dc:title></dc:title>
      </cc:Work>
    </rdf:RDF>
  </metadata>
  <g
     inkscape:label="Layer 1"
     inkscape:groupmode="layer"
     id="layer1"
     transform="translate(0,-692.36218)">
    <g
       style="fill:#0a1f36;fill-opacity:1"
       transform="matrix(6.6691399,0,0,7.2747265,-3130.7927,84.333622)"
       id="g6152">
      <g
         id="g6154"
         style="fill:#0a1f36;fill-opacity:1"
         transform="matrix(1.3824225,0,0,1.3824225,-193.58855,-49.517314)">
        <path
           sodipodi:nodetypes="ccsss"
           id="path6156"
           d="m 529.1538,129.33275 c 0,0 -47.01047,0 -47.01047,0 0,0 12.36511,-30.310618 12.36511,-30.310618 3.74986,0 -9.53598,19.427938 10.625,23.186068 21.84001,4.07111 24.02036,4.78138 24.02036,7.12455 z"
           style="fill:#0a1f36;fill-opacity:1;fill-rule:nonzero;stroke:none;stroke-width:5;marker:none;visibility:visible;display:inline;overflow:visible;enable-background:accumulate"
           inkscape:connector-curvature="0" />
        <path
           sodipodi:nodetypes="csccsc"
           id="path6158"
           d="m 494.4833,108.16112 c 0,0 -0.76978,7.94322 15.37954,8.62927 11.34287,0.47947 14.57914,0.71038 14.57914,0.71038 l 2.72193,6.44424 c 0,0 -0.2016,-0.3884 -18.92621,-2.69637 -16.35269,-2.01561 -13.7544,-13.08752 -13.7544,-13.08752 z"
           style="fill:#0a1f36;fill-opacity:1;fill-rule:nonzero;stroke:none;stroke-width:5;marker:none;visibility:visible;display:inline;overflow:visible;enable-background:accumulate"
           inkscape:connector-curvature="0" />
        <path
           sodipodi:nodetypes="cssszczs"
           id="path6160"
           d="m 495.32782,105.75061 c 1.67806,7.63874 16.57057,8.12275 16.04477,-0.42916 -0.35631,-5.795272 -7.07406,-5.19219 -5.5457,-2.06558 0,0 -2.56409,-1.1124 -2.56409,-1.1124 1.09343,-3.14548 10.97151,-5.705222 15.61906,2.89077 4.64755,8.59599 4.37112,9.65873 4.37112,9.65873 0,0 -3.91482,0.0126 -16.79835,-0.11501 -12.88296,-0.12761 -11.12681,-8.82735 -11.12681,-8.82735 z"
           style="fill:#0a1f36;fill-opacity:1;fill-rule:nonzero;stroke:none;stroke-width:5;marker:none;visibility:visible;display:inline;overflow:visible;enable-background:accumulate"
           inkscape:connector-curvature="0" />
        <path
           transform="matrix(0.8999532,0,0,0.8999532,50.390569,10.161106)"
           d="m 508.43824,103.49209 a 2.8776281,2.8776281 0 1 1 -5.75526,0 2.8776281,2.8776281 0 1 1 5.75526,0 z"
           sodipodi:ry="2.8776281"
           sodipodi:rx="2.8776281"
           sodipodi:cy="103.49209"
           sodipodi:cx="505.56061"
           id="path6162"
           style="fill:#0a1f36;fill-opacity:1;fill-rule:nonzero;stroke:none;stroke-width:5;marker:none;visibility:visible;display:inline;overflow:visible;enable-background:accumulate"
           sodipodi:type="arc" />
      </g>
    </g>
    <path
       style="font-size:64px;font-style:normal;font-variant:normal;font-weight:bold;font-stretch:normal;text-align:end;line-height:110.00000238%;writing-mode:lr-tb;text-anchor:end;fill:#0a1f36;fill-opacity:1;fill-rule:nonzero;stroke:none;stroke-width:5;marker:none;visibility:visible;display:inline;overflow:visible;enable-background:accumulate;font-family:AF Battersea Bold;-inkscape-font-specification:Helvetica Neue Bold"
       d="m 617.21187,768.80573 c -93.64383,38.7886 -93.58308,178.22394 -93.58308,178.22394 l 40.63754,0.0612 4.0043,-38.15481 64.35166,-0.0873 0,38.22283 135.91176,0 c 0,0 -18.58688,-16.6398 -18.58688,-36.62736 0,0 -76.12144,0 -76.12144,0 l 0,-37.94127 75.86438,0 0,-30.68756 -75.86438,0 0,-39.4999 c 0,0 75.86438,0 75.86438,0 0,-18.35896 19.04645,-33.51013 19.04645,-33.51013 0,0 -151.52469,0 -151.52469,0 z m 223.52924,-1.75345 c -39.90108,-9e-5 -64.09827,30.46933 -64.09827,68.77373 l 0,45.78418 c 0,37.1074 25.4037,67.79964 63.70826,67.79964 19.55141,0 37.50658,-8.80145 49.87542,-23.96361 0,5.58595 0.39017,11.55859 0.39017,17.14472 -7.7e-4,27.53125 -13.54025,47.14788 -42.66761,47.14788 -17.55581,10e-5 -26.62426,-7.69789 -37.79628,-20.06698 l -29.22364,24.74286 c 17.15725,19.5512 40.68625,30.7827 67.01992,30.7827 28.72871,-10e-5 54.39139,-13.652 69.55301,-37.99125 9.17733,-14.76313 10.71584,-24.34086 10.71584,-41.49801 l 0,-176.12309 -37.99124,0 0,21.04127 c -13.56627,-15.16226 -29.13678,-23.57404 -49.48541,-23.57404 z m 277.12999,0 c -19.95,-9e-5 -36.718,8.81077 -49.4856,23.57404 l 0,-21.04127 -38.3811,0 0,177.48684 38.3811,0 0,-102.47867 c 0,-22.34422 16.027,-39.54975 38.7707,-39.54975 10.7725,0 16.7529,3.1624 25.1321,9.54645 l 26.3013,-33.12047 c -11.5706,-9.57604 -25.9555,-14.41717 -40.7185,-14.41717 z m -158.04805,2.53277 0,177.48684 38.18623,0 0,-177.48684 -38.18623,0 z M 632.58502,796.8639 c 0,0 0,81.96631 0,81.96631 l -59.78367,0.0436 c 0,0 11.74167,-62.10564 59.78367,-82.00525 z m 220.23514,8.17957 c 21.54614,0 37.40636,17.62321 37.40636,38.77044 l 0,26.10672 c 0,23.54121 -12.66868,41.49803 -37.40636,41.49803 -20.34942,9e-5 -38.38121,-16.65847 -38.38121,-37.40662 l 0,-30.19813 c 0,-21.54632 16.83515,-38.77044 38.38121,-38.77044 z"
       id="path6164"
       sodipodi:nodetypes="cccccccsccccccscscccscssccscccccccccccccscccccccccccscccsccc"
       inkscape:connector-curvature="0" />
  </g>
</svg>
